<svg width="74" height="20" viewBox="0 0 74 20" fill="none" xmlns="http://www.w3.org/2000/svg">
<path d="M12.3575 9.57714C12.3394 7.43901 14.1175 6.39981 14.1956 6.35203C13.1864 4.89476 11.6246 4.69169 11.078 4.67378C9.76846 4.53641 8.49499 5.45616 7.82821 5.45616C7.14942 5.45616 6.11623 4.69169 5.01094 4.70961C3.58729 4.7335 2.24774 5.55172 1.52089 6.82982C0.0131426 9.42783 1.13645 13.2502 2.58413 15.3525C3.31097 16.3797 4.15195 17.5324 5.26324 17.4906C6.34449 17.4488 6.75296 16.8038 8.05648 16.8038C9.35398 16.8038 9.73242 17.4906 10.8617 17.4667C12.0271 17.4488 12.7539 16.4335 13.4567 15.3943C14.2917 14.2177 14.6281 13.0531 14.6401 12.9934C14.6101 12.9814 12.3815 12.1333 12.3575 9.57714Z" fill="white"/>
<path d="M10.2239 3.29314C10.8067 2.57048 11.2033 1.58503 11.0951 0.581665C10.254 0.6175 9.19649 1.16099 8.58964 1.87171C8.0549 2.49881 7.57423 3.5201 7.69439 4.48166C8.64372 4.55333 9.61708 4.00386 10.2239 3.29314Z" fill="white"/>
<path d="M28.0504 17.3404H26.5366L25.7076 14.7484H22.8243L22.0374 17.3404H20.5657L23.419 8.51917H25.185L28.0504 17.3404ZM25.4614 13.6614L24.7105 11.362C24.6324 11.1231 24.4822 10.5737 24.266 9.7017H24.2359C24.1458 10.078 24.0077 10.6334 23.8154 11.362L23.0766 13.6614H25.4614Z" fill="white"/>
<path d="M35.3819 14.0843C35.3819 15.1654 35.0876 16.0194 34.4929 16.6465C33.9643 17.2079 33.3035 17.4827 32.5226 17.4827C31.6756 17.4827 31.0689 17.184 30.6965 16.5808V19.9194H29.2728V13.069C29.2728 12.3882 29.2548 11.6954 29.2188 10.9787H30.4682L30.5463 11.988H30.5703C31.0449 11.2295 31.7657 10.8473 32.7268 10.8473C33.4837 10.8473 34.1084 11.1459 34.613 11.7372C35.1296 12.3344 35.3819 13.1108 35.3819 14.0843ZM33.9342 14.1321C33.9342 13.511 33.7961 13.0033 33.5137 12.6032C33.2074 12.1851 32.7929 11.9761 32.2763 11.9761C31.9279 11.9761 31.6095 12.0955 31.3212 12.3225C31.0389 12.5554 30.8466 12.854 30.7625 13.2303C30.7205 13.4035 30.6965 13.5468 30.6965 13.6603V14.7234C30.6965 15.1833 30.8406 15.5775 31.123 15.894C31.4053 16.2105 31.7777 16.3718 32.2343 16.3718C32.7689 16.3718 33.1834 16.1627 33.4837 15.7566C33.784 15.3445 33.9342 14.807 33.9342 14.1321Z" fill="white"/>
<path d="M42.7368 14.0843C42.7368 15.1654 42.4425 16.0194 41.8478 16.6465C41.3192 17.2079 40.6584 17.4827 39.8775 17.4827C39.0305 17.4827 38.4238 17.184 38.0514 16.5808V19.9194H36.6277V13.069C36.6277 12.3882 36.6097 11.6954 36.5737 10.9787H37.8231L37.9012 11.988H37.9252C38.3998 11.2295 39.1206 10.8473 40.0817 10.8473C40.8386 10.8473 41.4633 11.1459 41.9679 11.7372C42.4845 12.3344 42.7368 13.1108 42.7368 14.0843ZM41.2891 14.1321C41.2891 13.511 41.151 13.0033 40.8687 12.6032C40.5623 12.1851 40.1478 11.9761 39.6312 11.9761C39.2828 11.9761 38.9644 12.0955 38.6761 12.3225C38.3938 12.5554 38.2076 12.854 38.1175 13.2303C38.0754 13.4035 38.0514 13.5468 38.0514 13.6603V14.7234C38.0514 15.1833 38.1956 15.5775 38.4779 15.894C38.7602 16.2105 39.1326 16.3718 39.5892 16.3718C40.1238 16.3718 40.5443 16.1627 40.8386 15.7566C41.145 15.3445 41.2891 14.807 41.2891 14.1321Z" fill="white"/>
<path d="M50.969 14.8683C50.969 15.6208 50.7047 16.23 50.1821 16.7018C49.6055 17.2154 48.8005 17.4723 47.7673 17.4723C46.8122 17.4723 46.0493 17.2871 45.4727 16.9228L45.803 15.7462C46.4278 16.1105 47.1126 16.2957 47.8574 16.2957C48.392 16.2957 48.8125 16.1762 49.1069 15.9373C49.4072 15.6984 49.5574 15.3759 49.5574 14.9758C49.5574 14.6174 49.4313 14.3188 49.191 14.0739C48.9447 13.8291 48.5362 13.6021 47.9656 13.3931C46.3977 12.8138 45.6228 11.9716 45.6228 10.8667C45.6228 10.1441 45.8992 9.55282 46.4458 9.08697C46.9924 8.62709 47.7193 8.39417 48.6263 8.39417C49.4313 8.39417 50.104 8.53153 50.6387 8.81223L50.2782 9.95894C49.7736 9.69018 49.209 9.55282 48.5723 9.55282C48.0737 9.55282 47.6772 9.67824 47.3949 9.91713C47.1606 10.1381 47.0405 10.4009 47.0405 10.7174C47.0405 11.0638 47.1786 11.3565 47.449 11.5775C47.6832 11.7865 48.1157 12.0135 48.7404 12.2583C49.5033 12.5629 50.062 12.9213 50.4224 13.3334C50.7888 13.7455 50.969 14.2591 50.969 14.8683Z" fill="white"/>
<path d="M55.6705 12.0439H54.1023V15.1316C54.1023 15.914 54.3787 16.3082 54.9315 16.3082C55.1839 16.3082 55.3941 16.2843 55.5624 16.2425L55.6044 17.3175C55.322 17.419 54.9555 17.4728 54.4989 17.4728C53.9341 17.4728 53.5015 17.2996 53.1831 16.9592C52.8646 16.6187 52.7084 16.0454 52.7084 15.2451V12.0379H51.7771V10.9808H52.7084V9.81614L54.1023 9.39807V10.9808H55.6705V12.0439Z" fill="white"/>
<path d="M62.7301 14.1101C62.7301 15.0896 62.4478 15.8899 61.8891 16.517C61.3005 17.162 60.5196 17.4845 59.5464 17.4845C58.6093 17.4845 57.8585 17.1739 57.2998 16.5588C56.7412 15.9436 56.4648 15.1612 56.4648 14.2176C56.4648 13.2321 56.7532 12.4258 57.3238 11.7987C57.9005 11.1716 58.6754 10.8551 59.6485 10.8551C60.5856 10.8551 61.3425 11.1657 61.9132 11.7868C62.4598 12.384 62.7301 13.1605 62.7301 14.1101ZM61.2584 14.1399C61.2584 13.5546 61.1323 13.0589 60.88 12.6409C60.5796 12.1332 60.1531 11.8824 59.6005 11.8824C59.0298 11.8824 58.5913 12.1332 58.297 12.6409C58.0387 13.0589 57.9185 13.5666 57.9185 14.1698C57.9185 14.7551 58.0447 15.2568 58.297 15.6689C58.6033 16.1765 59.0358 16.4274 59.5885 16.4274C60.1291 16.4274 60.5556 16.1706 60.868 15.6569C61.1263 15.2269 61.2584 14.7252 61.2584 14.1399Z" fill="white"/>
<path d="M67.3535 12.2209C67.2153 12.1971 67.0651 12.1851 66.9029 12.1851C66.4042 12.1851 66.0136 12.3703 65.7433 12.7465C65.5089 13.075 65.3888 13.499 65.3888 14.0007V17.3393H63.9648V12.9794C63.9648 12.2448 63.9528 11.5759 63.9227 10.9787H65.1605L65.2145 12.1971H65.2566C65.4068 11.779 65.6411 11.4386 65.9656 11.1877C66.284 10.9608 66.6265 10.8473 66.993 10.8473C67.1252 10.8473 67.2454 10.8592 67.3475 10.8712L67.3535 12.2209Z" fill="white"/>
<path d="M73.7041 13.8558C73.7041 14.1066 73.6861 14.3216 73.65 14.4948H69.3851C69.4031 15.1219 69.6073 15.6057 70.0038 15.9342C70.3642 16.2268 70.8268 16.3761 71.3974 16.3761C72.0282 16.3761 72.6048 16.2746 73.1214 16.0775L73.3437 17.057C72.737 17.3198 72.0222 17.4512 71.1992 17.4512C70.208 17.4512 69.4271 17.1585 68.8625 16.5792C68.2978 15.9999 68.0155 15.2175 68.0155 14.244C68.0155 13.2884 68.2798 12.4881 68.8084 11.849C69.3611 11.1682 70.1059 10.8278 71.043 10.8278C71.9621 10.8278 72.6649 11.1682 73.1334 11.849C73.5119 12.3985 73.7041 13.0614 73.7041 13.8558ZM72.3465 13.4915C72.3585 13.0734 72.2624 12.7091 72.0702 12.4045C71.8239 12.0103 71.4455 11.8132 70.9409 11.8132C70.4784 11.8132 70.0999 12.0043 69.8116 12.3866C69.5773 12.6912 69.4331 13.0614 69.3911 13.4855L72.3465 13.4915Z" fill="white"/>
<path d="M24.776 5.36296H24.031L23.6224 4.09083H22.2044L21.8139 5.36296H21.0929L22.4928 1.02698H23.3581L24.776 5.36296ZM23.4962 3.55331L23.1297 2.41855C23.0937 2.30508 23.0216 2.03034 22.9074 1.60033H22.8954C22.8473 1.78548 22.7873 2.05423 22.6851 2.41855L22.3246 3.55331H23.4962Z" fill="white"/>
<path d="M28.2839 2.2301L27.0943 5.35965H26.4153L25.2617 2.2301H26.0128L26.5475 3.88446C26.6376 4.1592 26.7157 4.42198 26.7758 4.67282H26.7939C26.8479 4.44587 26.926 4.18309 27.0222 3.88446L27.5509 2.2301H28.2839Z" fill="white"/>
<path d="M30.816 5.36262L30.7619 5.00428H30.7439C30.5276 5.29095 30.2212 5.43429 29.8246 5.43429C29.2598 5.43429 28.8633 5.04011 28.8633 4.51454C28.8633 3.7441 29.5362 3.34394 30.7018 3.34394V3.28422C30.7018 2.87212 30.4795 2.66906 30.0469 2.66906C29.7345 2.66906 29.4641 2.7467 29.2238 2.90198L29.0796 2.44808C29.368 2.26891 29.7345 2.17932 30.1611 2.17932C30.9842 2.17932 31.3988 2.60934 31.3988 3.47534V4.62802C31.3988 4.94455 31.4108 5.18942 31.4469 5.37457L30.816 5.36262ZM30.7199 3.80382C29.9448 3.80382 29.5542 3.98897 29.5542 4.4369C29.5542 4.76538 29.7525 4.92664 30.0349 4.92664C30.3894 4.92664 30.7199 4.65788 30.7199 4.28759V3.80382Z" fill="white"/>
<path d="M32.9579 1.72043C32.7236 1.72043 32.5433 1.54125 32.5433 1.30236C32.5433 1.06346 32.7296 0.890259 32.9699 0.890259C33.2103 0.890259 33.4025 1.06346 33.3965 1.30236C33.3965 1.5532 33.2163 1.72043 32.9579 1.72043ZM32.6214 2.23405H33.3184V5.35763H32.6214V2.23405Z" fill="white"/>
<path d="M34.5585 0.804321H35.2554V5.36128H34.5585V0.804321Z" fill="white"/>
<path d="M38.2218 5.36469L38.1677 5.00634H38.1497C37.9334 5.29302 37.6269 5.43636 37.2304 5.43636C36.6656 5.43636 36.269 5.04218 36.269 4.51661C36.269 3.74616 36.942 3.34601 38.1076 3.34601V3.28629C38.1076 2.87419 37.8853 2.67113 37.4527 2.67113C37.1403 2.67113 36.8699 2.74877 36.6295 2.90405L36.4853 2.44417C36.7737 2.265 37.1403 2.17542 37.5669 2.17542C38.39 2.17542 38.8046 2.60543 38.8046 3.47143V4.62411C38.8046 4.94065 38.8166 5.18552 38.8466 5.37066H38.2218V5.36469ZM38.1256 3.80589C37.3506 3.80589 36.96 3.99103 36.96 4.43896C36.96 4.76745 37.1583 4.9287 37.4407 4.9287C37.7952 4.9287 38.1256 4.65994 38.1256 4.28965V3.80589Z" fill="white"/>
<path d="M41.6403 5.43892C41.1957 5.43892 40.8652 5.25378 40.6489 4.88349H40.6369L40.5948 5.36725H40C40.018 5.11641 40.024 4.83571 40.024 4.52514V0.804321H40.727V2.69758H40.739C40.9493 2.35118 41.2798 2.17798 41.7424 2.17798C42.4995 2.17798 43.0282 2.823 43.0282 3.76067C43.0282 4.7282 42.4394 5.43892 41.6403 5.43892ZM41.4961 2.72147C41.0935 2.72147 40.727 3.06787 40.727 3.55164V4.1011C40.727 4.53111 41.0575 4.88349 41.4841 4.88349C42.0068 4.88349 42.3192 4.45944 42.3192 3.78456C42.3192 3.15148 41.9948 2.72147 41.4961 2.72147Z" fill="white"/>
<path d="M44.0625 0.804321H44.7595V5.36128H44.0625V0.804321Z" fill="white"/>
<path d="M48.5628 3.97127H46.4659C46.4779 4.56254 46.8745 4.897 47.4573 4.897C47.7697 4.897 48.0521 4.84325 48.3045 4.74769L48.4126 5.23146C48.1182 5.36285 47.7697 5.42257 47.3612 5.42257C46.3758 5.42257 45.793 4.80741 45.793 3.84585C45.793 2.89027 46.3878 2.1676 47.283 2.1676C48.0822 2.1676 48.5929 2.75887 48.5929 3.65474C48.5929 3.78016 48.5869 3.88766 48.5628 3.97127ZM47.9259 3.47556C47.9259 2.9918 47.6796 2.65137 47.235 2.65137C46.8324 2.65137 46.52 2.99777 46.4719 3.47556H47.9259Z" fill="white"/>
<path d="M52.7952 5.43636C51.876 5.43636 51.2811 4.7555 51.2811 3.82978C51.2811 2.86224 51.888 2.17542 52.8493 2.17542C53.7566 2.17542 54.3634 2.82641 54.3634 3.77602C54.3634 4.74953 53.7386 5.43636 52.7952 5.43636ZM52.8253 2.68307C52.3206 2.68307 51.9961 3.15489 51.9961 3.80589C51.9961 4.45091 52.3266 4.91676 52.8193 4.91676C53.312 4.91676 53.6424 4.41507 53.6424 3.78797C53.6364 3.15489 53.318 2.68307 52.8253 2.68307Z" fill="white"/>
<path d="M58.1229 5.36285H57.426V3.56515C57.426 3.00971 57.2097 2.73498 56.7891 2.73498C56.3745 2.73498 56.0921 3.08736 56.0921 3.49945V5.35688H55.3951V3.12916C55.3951 2.85443 55.3891 2.55581 55.3711 2.2333H55.9839L56.014 2.71707H56.032C56.2183 2.38261 56.6028 2.1676 57.0294 2.1676C57.6903 2.1676 58.1229 2.66929 58.1229 3.48751V5.36285Z" fill="white"/>
<path d="M62.6898 2.76256H61.9207V4.27956C61.9207 4.66776 62.0589 4.85888 62.3293 4.85888C62.4495 4.85888 62.5576 4.84694 62.6417 4.82902L62.6598 5.35459C62.5216 5.40834 62.3413 5.43223 62.119 5.43223C61.5662 5.43223 61.2418 5.12764 61.2418 4.33928V2.76256H60.7852V2.24296H61.2418V1.66961L61.9267 1.46057V2.23699H62.6958V2.76256" fill="white"/>
<path d="M66.385 5.36725H65.688V3.5815C65.688 3.02009 65.4717 2.73939 65.0511 2.73939C64.6906 2.73939 64.3541 2.98426 64.3541 3.47997V5.36128H63.6572V0.804321H64.3541V2.67966H64.3662C64.5885 2.33923 64.9009 2.17201 65.3095 2.17201C65.9764 2.17201 66.385 2.68563 66.385 3.50386V5.36725Z" fill="white"/>
<path d="M69.9574 3.97127H67.8605C67.8725 4.56254 68.2691 4.897 68.8519 4.897C69.1643 4.897 69.4467 4.84325 69.6991 4.74769L69.8072 5.23146C69.5128 5.36285 69.1643 5.42257 68.7558 5.42257C67.7704 5.42257 67.1876 4.80741 67.1876 3.84585C67.1876 2.89027 67.7824 2.1676 68.6776 2.1676C69.4768 2.1676 69.9875 2.75887 69.9875 3.65474C69.9875 3.78016 69.9815 3.88766 69.9574 3.97127ZM69.3205 3.47556C69.3205 2.9918 69.0742 2.65137 68.6296 2.65137C68.227 2.65137 67.9086 2.99777 67.8665 3.47556H69.3205Z" fill="white"/>
</svg>
