<svg width="22" height="21" viewBox="0 0 22 21" fill="none" xmlns="http://www.w3.org/2000/svg">
<path opacity="0.9" d="M21.772 8.98049L17.157 13.4721L18.246 19.821C18.2904 20.1022 18.1793 20.376 17.9496 20.5462C17.8237 20.6424 17.6682 20.6868 17.5126 20.6868C17.3941 20.6868 17.2755 20.6572 17.1644 20.6054L11.4605 17.6085L5.75654 20.6054C5.50468 20.7386 5.20837 20.7164 4.97873 20.5462C4.74909 20.3834 4.63797 20.1022 4.68242 19.821L5.77135 13.4721L1.16375 8.98049C0.963745 8.7807 0.889667 8.49211 0.97856 8.22572C1.06745 7.95933 1.29709 7.75954 1.57859 7.72254L7.95663 6.79758L10.8086 1.02582C11.0605 0.522643 11.8901 0.522643 12.1346 1.02582L14.9866 6.79758L21.3646 7.72254C21.6461 7.76694 21.8757 7.95933 21.9646 8.22572C22.0535 8.49211 21.9794 8.7807 21.772 8.98049Z" fill="#70758F" fill-opacity="0.3"/>
</svg>
