<svg width="52" height="52" viewBox="0 0 52 52" fill="none" xmlns="http://www.w3.org/2000/svg">
<path d="M25.9941 50.7004C39.798 50.7004 50.9883 39.5745 50.9883 25.85C50.9883 12.1255 39.798 0.999634 25.9941 0.999634C12.1903 0.999634 1 12.1255 1 25.85C1 39.5745 12.1903 50.7004 25.9941 50.7004Z" stroke="#FF6810"/>
<path d="M24.6945 33.1971L24.674 26.9379H21.9961V24.2553H24.674V22.467C24.674 20.0534 26.1661 18.8903 28.3155 18.8903C29.3451 18.8903 30.2299 18.967 30.4878 19.0014V21.5237L28.9971 21.5244C27.8281 21.5244 27.6018 22.0808 27.6018 22.8973V24.2553H30.9226L30.0299 26.9379H27.6018V33.1971H24.6945Z" fill="#FF6810"/>
</svg>
