<svg width="19" height="19" viewBox="0 0 19 19" fill="none" xmlns="http://www.w3.org/2000/svg">
<g clip-path="url(#clip0_1_31)">
<path d="M13.7242 2.39807H6.22599C4.15541 2.39807 2.47687 4.06696 2.47687 6.12563V13.5807C2.47687 15.6394 4.15541 17.3083 6.22599 17.3083H13.7242C15.7948 17.3083 17.4734 15.6394 17.4734 13.5807V6.12563C17.4734 4.06696 15.7948 2.39807 13.7242 2.39807Z" stroke="white" stroke-width="2" stroke-linecap="round" stroke-linejoin="round"/>
<path d="M12.9743 9.38411C13.0668 10.0046 12.9602 10.6382 12.6697 11.195C12.3791 11.7517 11.9194 12.2032 11.3559 12.4852C10.7924 12.7672 10.1538 12.8654 9.53092 12.7657C8.90807 12.6661 8.33268 12.3737 7.8866 11.9302C7.44051 11.4866 7.14644 10.9146 7.04621 10.2953C6.94599 9.67602 7.04471 9.0411 7.32834 8.48083C7.61197 7.92056 8.06606 7.46348 8.62603 7.17459C9.186 6.88571 9.82333 6.77973 10.4474 6.87174C11.0839 6.96558 11.6732 7.26049 12.1282 7.7129C12.5833 8.16531 12.8799 8.75123 12.9743 9.38411Z" stroke="white" stroke-width="2" stroke-linecap="round" stroke-linejoin="round"/>
<ellipse cx="14.098" cy="5.75071" rx="1.125" ry="1.11827" fill="white"/>
</g>
<defs>
<clipPath id="clip0_1_31">
<rect width="17.9958" height="17.8923" fill="white" transform="translate(0.976868 0.905884)"/>
</clipPath>
</defs>
</svg>
