<svg width="81" height="24" viewBox="0 0 81 24" fill="none" xmlns="http://www.w3.org/2000/svg">
<path d="M34.9643 5.42764C34.9643 6.0617 34.8051 6.61651 34.407 7.0128C33.9293 7.48834 33.372 7.72612 32.6555 7.72612C31.939 7.72612 31.3817 7.48834 30.904 7.0128C30.4263 6.53725 30.1875 5.98245 30.1875 5.26912C30.1875 4.55581 30.4263 4.001 30.904 3.52545C31.3817 3.04991 31.939 2.81213 32.6555 2.81213C32.974 2.81213 33.2924 2.89139 33.6109 3.04991C33.9293 3.20842 34.1682 3.36694 34.3274 3.60471L33.9293 4.001C33.6109 3.60471 33.2128 3.4462 32.6555 3.4462C32.1778 3.4462 31.7002 3.60471 31.3817 4.001C30.9836 4.31803 30.8244 4.79358 30.8244 5.34838C30.8244 5.90319 30.9836 6.37873 31.3817 6.69577C31.7798 7.0128 32.1778 7.25057 32.6555 7.25057C33.2128 7.25057 33.6109 7.09205 34.0089 6.69577C34.2478 6.45799 34.407 6.14096 34.407 5.74467H32.6555V5.11061H34.9643V5.42764ZM38.6265 3.4462H36.477V4.95209H38.4673V5.5069H36.477V7.0128H38.6265V7.64686H35.8401V2.89139H38.6265V3.4462ZM41.2538 7.64686H40.6169V3.4462H39.2634V2.89139H42.6072V3.4462H41.2538V7.64686ZM44.916 7.64686V2.89139H45.5529V7.64686H44.916ZM48.2598 7.64686H47.6229V3.4462H46.2694V2.89139H49.5336V3.4462H48.1802V7.64686H48.2598ZM55.8231 7.0128C55.3454 7.48834 54.7881 7.72612 54.0716 7.72612C53.355 7.72612 52.7977 7.48834 52.3201 7.0128C51.8424 6.53725 51.6035 5.98245 51.6035 5.26912C51.6035 4.55581 51.8424 4.001 52.3201 3.52545C52.7977 3.04991 53.355 2.81213 54.0716 2.81213C54.7881 2.81213 55.3454 3.04991 55.8231 3.52545C56.3007 4.001 56.5396 4.55581 56.5396 5.26912C56.5396 5.98245 56.3007 6.53725 55.8231 7.0128ZM52.7977 6.61651C53.1162 6.93354 53.5939 7.17131 54.0716 7.17131C54.5492 7.17131 55.0269 7.0128 55.3454 6.61651C55.6638 6.29948 55.9027 5.82393 55.9027 5.26912C55.9027 4.71432 55.7434 4.23877 55.3454 3.92174C55.0269 3.60471 54.5492 3.36694 54.0716 3.36694C53.5939 3.36694 53.1162 3.52545 52.7977 3.92174C52.4793 4.23877 52.2404 4.71432 52.2404 5.26912C52.2404 5.82393 52.3997 6.29948 52.7977 6.61651ZM57.4153 7.64686V2.89139H58.1319L60.4406 6.61651V2.89139H61.0776V7.64686H60.4406L57.9726 3.76323V7.64686H57.4153Z" fill="white" stroke="white" stroke-width="0.370767" stroke-miterlimit="10"/>
<path d="M46.3555 14.143C44.9183 14.143 43.7806 15.1898 43.7806 16.6436C43.7806 18.0393 44.9183 19.1442 46.3555 19.1442C47.7926 19.1442 48.9304 18.0975 48.9304 16.6436C48.9304 15.1316 47.7926 14.143 46.3555 14.143ZM46.3555 18.0975C45.577 18.0975 44.9183 17.4578 44.9183 16.5855C44.9183 15.7132 45.577 15.0735 46.3555 15.0735C47.1339 15.0735 47.7926 15.655 47.7926 16.5855C47.7926 17.4578 47.1339 18.0975 46.3555 18.0975ZM40.7865 14.143C39.3494 14.143 38.2116 15.1898 38.2116 16.6436C38.2116 18.0393 39.3494 19.1442 40.7865 19.1442C42.2237 19.1442 43.3614 18.0975 43.3614 16.6436C43.3614 15.1316 42.2237 14.143 40.7865 14.143ZM40.7865 18.0975C40.0081 18.0975 39.3494 17.4578 39.3494 16.5855C39.3494 15.7132 40.0081 15.0735 40.7865 15.0735C41.565 15.0735 42.2237 15.655 42.2237 16.5855C42.2237 17.4578 41.565 18.0975 40.7865 18.0975ZM34.1397 14.899V15.9458H36.7146C36.6547 16.5273 36.4152 16.9925 36.1158 17.2833C35.7565 17.6322 35.1577 18.0393 34.1397 18.0393C32.5229 18.0393 31.3252 16.8181 31.3252 15.2479C31.3252 13.6778 32.5828 12.4566 34.1397 12.4566C34.978 12.4566 35.6367 12.8055 36.1158 13.2126L36.8942 12.4566C36.2355 11.875 35.3972 11.4098 34.1996 11.4098C32.0438 11.4098 30.1875 13.1544 30.1875 15.2479C30.1875 17.3415 32.0438 19.0861 34.1996 19.0861C35.3972 19.0861 36.2355 18.7371 36.9541 17.9812C37.6727 17.2833 37.9122 16.2947 37.9122 15.5387C37.9122 15.3061 37.9122 15.0735 37.8523 14.899H34.1397ZM61.3258 15.7132C61.0863 15.1316 60.4875 14.143 59.1701 14.143C57.8527 14.143 56.7749 15.1316 56.7749 16.6436C56.7749 18.0393 57.8527 19.1442 59.2899 19.1442C60.4276 19.1442 61.1462 18.4464 61.3857 18.0393L60.5474 17.4578C60.248 17.8648 59.8887 18.1556 59.2899 18.1556C58.6911 18.1556 58.3318 17.923 58.0324 17.3996L61.4456 16.0039L61.3258 15.7132ZM57.8527 16.5273C57.8527 15.5969 58.6312 15.0735 59.1701 15.0735C59.5893 15.0735 60.0084 15.3061 60.1282 15.5969L57.8527 16.5273ZM55.0383 18.9116H56.176V11.6424H55.0383V18.9116ZM53.2418 14.6664C52.9424 14.3756 52.4634 14.0849 51.8646 14.0849C50.6071 14.0849 49.4094 15.1898 49.4094 16.5855C49.4094 17.9812 50.5472 19.0279 51.8646 19.0279C52.4634 19.0279 52.9424 18.7371 53.182 18.4464H53.2418V18.7953C53.2418 19.7258 52.7029 20.2491 51.8646 20.2491C51.2059 20.2491 50.7268 19.7839 50.6071 19.3768L49.649 19.7839C49.9484 20.4236 50.6669 21.2378 51.9245 21.2378C53.2418 21.2378 54.3197 20.4818 54.3197 18.679V14.2593H53.2418V14.6664ZM51.9245 18.0975C51.146 18.0975 50.4873 17.4578 50.4873 16.5855C50.4873 15.7132 51.146 15.0735 51.9245 15.0735C52.7029 15.0735 53.3017 15.7132 53.3017 16.5855C53.3017 17.4578 52.7029 18.0975 51.9245 18.0975ZM66.5355 11.6424H63.8409V18.9116H64.9786V16.1784H66.5355C67.793 16.1784 68.9907 15.3061 68.9907 13.9104C68.9907 12.5147 67.793 11.6424 66.5355 11.6424ZM66.5954 15.1316H64.9786V12.631H66.5954C67.4337 12.631 67.9128 13.3289 67.9128 13.8522C67.8529 14.4919 67.3739 15.1316 66.5954 15.1316ZM73.4818 14.0849C72.6434 14.0849 71.8051 14.4338 71.5057 15.1898L72.5237 15.5969C72.7632 15.1898 73.1225 15.0735 73.5417 15.0735C74.1405 15.0735 74.6794 15.4224 74.7393 16.0039V16.0621C74.5596 15.9458 74.0806 15.7713 73.6015 15.7713C72.5237 15.7713 71.4458 16.3528 71.4458 17.3996C71.4458 18.3882 72.344 19.0279 73.3021 19.0279C74.0806 19.0279 74.4399 18.679 74.7393 18.3301H74.7992V18.9116H75.877V16.1202C75.7573 14.8409 74.7393 14.0849 73.4818 14.0849ZM73.362 18.0975C73.0027 18.0975 72.4638 17.923 72.4638 17.4578C72.4638 16.8762 73.1225 16.7018 73.6614 16.7018C74.1405 16.7018 74.38 16.8181 74.6794 16.9344C74.5596 17.6322 73.9608 18.0975 73.362 18.0975ZM79.6496 14.2593L78.392 17.3996H78.3322L77.0148 14.2593H75.8172L77.7932 18.679L76.6555 21.1214H77.7932L80.8472 14.2593H79.6496ZM69.5895 18.9116H70.7272V11.6424H69.5895V18.9116Z" fill="white"/>
<path d="M0.89472 0.667725C0.624406 0.936484 0.534302 1.38442 0.534302 1.92193V21.7205C0.534302 22.258 0.714511 22.706 0.984825 22.9747L1.07493 23.0643L12.2479 11.9556V11.7764L0.89472 0.667725Z" fill="url(#paint0_linear_1_71)"/>
<path d="M15.8536 15.724L12.1593 12.0509V11.7822L15.8536 8.10913L15.9437 8.19872L20.3588 10.7071C21.6203 11.4238 21.6203 12.5885 20.3588 13.3051L15.8536 15.724Z" fill="url(#paint1_linear_1_71)"/>
<path d="M15.9454 15.6298L12.161 11.8672L0.897949 23.0655C1.34847 23.5134 1.97921 23.5134 2.79015 23.1551L15.9454 15.6298Z" fill="url(#paint2_linear_1_71)"/>
<path d="M15.9454 8.10492L2.79015 0.669249C1.97921 0.221317 1.34847 0.310903 0.897949 0.758835L12.161 11.8675L15.9454 8.10492Z" fill="url(#paint3_linear_1_71)"/>
<path opacity="0.2" d="M15.8548 15.5388L2.78966 22.8849C2.06882 23.3328 1.43809 23.2432 0.987566 22.8849L0.897461 22.9745L0.987566 23.0641C1.43809 23.4224 2.06882 23.512 2.78966 23.0641L15.8548 15.5388Z" fill="white"/>
<path opacity="0.2" d="M0.895086 22.8863C0.624772 22.6176 0.534668 22.1696 0.534668 21.6321V21.7217C0.534668 22.2592 0.714877 22.7071 0.985191 22.9759V22.8863H0.895086ZM20.3577 13.0318L15.8525 15.5402L15.9426 15.6298L20.3577 13.1214C20.9884 12.7631 21.2587 12.3151 21.2587 11.8672C21.2587 12.3151 20.8983 12.6735 20.3577 13.0318Z" fill="white"/>
<path opacity="0.2" d="M2.78692 0.76088L20.3573 10.705C20.898 11.0633 21.2584 11.4217 21.2584 11.8696C21.2584 11.4217 20.9881 10.9737 20.3573 10.6154L2.78692 0.671294C1.52545 -0.0453974 0.534302 0.492121 0.534302 1.9255V2.01509C0.534302 0.671294 1.52545 0.0441889 2.78692 0.76088Z" fill="white"/>
<defs>
<linearGradient id="paint0_linear_1_71" x1="11.1666" y1="1.75172" x2="-3.86839" y2="16.8728" gradientUnits="userSpaceOnUse">
<stop stop-color="#00A0FF"/>
<stop offset="0.007" stop-color="#00A1FF"/>
<stop offset="0.26" stop-color="#00BEFF"/>
<stop offset="0.512" stop-color="#00D2FF"/>
<stop offset="0.76" stop-color="#00DFFF"/>
<stop offset="1" stop-color="#00E3FF"/>
</linearGradient>
<linearGradient id="paint1_linear_1_71" x1="22.0113" y1="11.8727" x2="0.208724" y2="11.8727" gradientUnits="userSpaceOnUse">
<stop stop-color="#FFE000"/>
<stop offset="0.409" stop-color="#FFBD00"/>
<stop offset="0.775" stop-color="#FFA500"/>
<stop offset="1" stop-color="#FF9C00"/>
</linearGradient>
<linearGradient id="paint2_linear_1_71" x1="13.8973" y1="13.9241" x2="-6.49039" y2="34.4298" gradientUnits="userSpaceOnUse">
<stop stop-color="#FF3A44"/>
<stop offset="1" stop-color="#C31162"/>
</linearGradient>
<linearGradient id="paint3_linear_1_71" x1="-1.898" y1="-5.89206" x2="7.20652" y2="3.26512" gradientUnits="userSpaceOnUse">
<stop stop-color="#32A071"/>
<stop offset="0.069" stop-color="#2DA771"/>
<stop offset="0.476" stop-color="#15CF74"/>
<stop offset="0.801" stop-color="#06E775"/>
<stop offset="1" stop-color="#00F076"/>
</linearGradient>
</defs>
</svg>
