<svg width="52" height="52" viewBox="0 0 52 52" fill="none" xmlns="http://www.w3.org/2000/svg">
<path d="M25.959 50.6965C39.7629 50.6965 50.9532 39.5706 50.9532 25.8461C50.9532 12.1216 39.7629 0.995728 25.959 0.995728C12.1551 0.995728 0.964874 12.1216 0.964874 25.8461C0.964874 39.5706 12.1551 50.6965 25.959 50.6965Z" stroke="#FF6810"/>
<path d="M33.2431 21.2237C32.7075 21.492 32.1719 21.5814 31.547 21.6708C32.1719 21.3131 32.6182 20.7766 32.7967 20.0613C32.2612 20.419 31.6363 20.5978 30.9222 20.7766C30.3866 20.2401 29.5832 19.8824 28.7798 19.8824C27.2623 19.8824 25.9233 21.2237 25.9233 22.8332C25.9233 23.1015 25.9233 23.2803 26.0126 23.4592C23.6025 23.3697 21.3708 22.2073 19.9426 20.419C19.6748 20.866 19.5855 21.3131 19.5855 21.9391C19.5855 22.9227 20.1211 23.8168 20.9245 24.3533C20.4782 24.3533 20.0319 24.1745 19.5855 23.9957C19.5855 25.4264 20.5675 26.5888 21.9064 26.8571C21.6386 26.9465 21.3708 26.9465 21.103 26.9465C20.9245 26.9465 20.746 26.9465 20.5675 26.8571C20.9245 28.0195 21.9957 28.9137 23.3347 28.9137C22.3528 29.7184 21.103 30.1655 19.6748 30.1655C19.407 30.1655 19.2285 30.1655 18.9607 30.1655C20.2997 30.9703 21.8172 31.5068 23.4239 31.5068C28.7798 31.5068 31.7256 27.0359 31.7256 23.1909C31.7256 23.1015 31.7256 22.9227 31.7256 22.8332C32.3504 22.3862 32.886 21.8496 33.2431 21.2237Z" fill="#FF6810"/>
</svg>
