<svg width="22" height="21" viewBox="0 0 22 21" fill="none" xmlns="http://www.w3.org/2000/svg">
<path d="M20.8306 8.98049L16.2156 13.4721L17.3045 19.821C17.349 20.1022 17.2379 20.376 17.0082 20.5462C16.8823 20.6424 16.7267 20.6868 16.5712 20.6868C16.4527 20.6868 16.3341 20.6572 16.223 20.6054L10.5191 17.6085L4.81513 20.6054C4.56327 20.7386 4.26696 20.7164 4.03732 20.5462C3.80768 20.3834 3.69657 20.1022 3.74101 19.821L4.82995 13.4721L0.222347 8.98049C0.0223383 8.7807 -0.0517389 8.49211 0.0371538 8.22572C0.126046 7.95933 0.355686 7.75954 0.637179 7.72254L7.01522 6.79758L9.8672 1.02582C10.1191 0.522643 10.9487 0.522643 11.1932 1.02582L14.0451 6.79758L20.4232 7.72254C20.7047 7.76694 20.9343 7.95933 21.0232 8.22572C21.1121 8.49211 21.038 8.7807 20.8306 8.98049Z" fill="#FAAF38"/>
</svg>
